<?xml version="1.0" encoding="utf-8"?>
<!-- Generator: Adobe Illustrator 24.1.2, SVG Export Plug-In . SVG Version: 6.00 Build 0)  -->
<svg version="1.1" id="Layer_1" xmlns="http://www.w3.org/2000/svg" xmlns:xlink="http://www.w3.org/1999/xlink" x="0px" y="0px"
	 viewBox="0 0 200 200" style="enable-background:new 0 0 200 200;" xml:space="preserve">
<style type="text/css">
	.st0{fill:#FDDDB8;}
	.st1{fill:#FF8DBB;}
	.st2{fill:none;stroke:#B040FF;stroke-width:3;stroke-linecap:round;stroke-miterlimit:10;}
	.st3{fill:none;stroke:#8DC984;stroke-width:3;stroke-linecap:round;stroke-miterlimit:10;}
	.st4{fill:none;stroke:#FFFFFF;stroke-linecap:round;stroke-miterlimit:10;}
	.st5{fill:none;stroke:#FFFF00;stroke-width:3;stroke-linecap:round;stroke-miterlimit:10;}
	.st6{fill:none;stroke:#00E2FF;stroke-width:2.0083;stroke-linecap:round;stroke-miterlimit:10;}
	.st7{fill:#FFFFFF;}
	.st8{fill:#FFFFFF;stroke:#FFFFFF;stroke-miterlimit:10;}
</style>
<g>
	<path class="st0" d="M177.2,76.5c1.2-0.3,1.8-1.4,1.8-2.3c0-0.9-0.8-1.5-1.7-1.9c1.1-1,1.5-1.1,3.1-2.2c1.9-1.3,2.2-2,4.4-1.7
		c2.2,0.3,4.3-2.7,5.1-4.7c0.8-2-1-2.2-1-2.2s1.8,0-0.7-0.7c-2.5-0.6-2-0.3-3.9-1.8c-1.9-1.6-2.5-1-4.8-0.6
		c-2.3,0.4-1.5-0.1-5.8-1.5c-4.3-1.4-3.9-0.9-6.8-2c-2.8-1.2-3.5-4.2-5-2.6c-1.4,1.6-0.2,2.4,0.4,5.2c0.5,2.4,5,10.4,5.9,13.2
		c-0.5-0.1-1-0.1-1.3-0.1c-2.5-0.1-3,0.6-3.1,2.4c-0.1,1.1,0.8,1.6,1.9,2c-0.5,0-0.9,0-1.4,0c-33.3,0-34.2,35-36.2,39
		c-5,10.2-15.5,17.3-27.6,17.3c-16.9,0-30.7-13.7-30.7-30.7c0-16.9,13.7-30.7,30.7-30.7c1.6,0,3.2,0.1,4.8,0.4c0,0,33.8,0,33.8-33.6
		c0-1.2,0-2.3-0.1-3.4c0.6,1.1,1.4,1.1,2.7,0.8c1-0.2,1.3-1.2,1.3-2.3c1.5,0.7,1.7,1,3.4,2.1c2,1.3,2.7,1.3,3.2,3.4
		c0.5,2.2,4.1,2.9,6.3,2.9s1.6-1.8,1.6-1.8s0.7,1.6,0.4-0.9c-0.4-2.5-0.5-2,0.2-4.3c0.7-2.3,0-2.7-1.3-4.7c-1.3-2-0.5-1.4-0.9-6
		c-0.4-4.5-0.7-4-0.7-7c0-3.1,2.5-4.9,0.5-5.6c-2-0.7-2.3,0.7-4.7,2.3c-1.9,1.3-7.2,7.9-9.7,10.2c-0.1-0.6-0.2-1.1-0.3-1.4
		c-0.4-1.7-2.1-2.2-3.2-1.9c-1.3,0.4-1.2,2.2-1.2,3.5c-7.9-20.6-32.4-21.5-32.4-21.5c-1.3,0-2.5-0.1-3.8-0.1
		c-54.9,0-99.4,44.5-99.4,99.4c0,54.9,44.5,99.4,99.4,99.4c50.2,0,91.7-37.2,98.4-85.5C199.5,110.5,202.4,83.4,177.2,76.5z"/>
	<path class="st0" d="M177,76.5c1.2-0.3,1.8-1.4,1.8-2.3c0-0.9-0.8-1.5-1.7-1.9c1.1-1,1.5-1.1,3.1-2.2c1.9-1.3,2.2-2,4.4-1.7
		c2.2,0.3,4.3-2.7,5.1-4.7c0.8-2-1-2.2-1-2.2s1.8,0-0.7-0.7c-2.5-0.6-2-0.3-3.9-1.8c-1.9-1.6-2.5-1-4.8-0.6
		c-2.3,0.4-1.5-0.1-5.8-1.5c-4.3-1.4-3.9-0.9-6.8-2c-2.8-1.2-3.5-4.2-5-2.6c-1.4,1.6-0.2,2.4,0.4,5.2c0.5,2.4,5,10.4,5.9,13.2
		c-0.5-0.1-1-0.1-1.3-0.1c-2.5-0.1-3,0.6-3.1,2.4c-0.1,1.1,0.8,1.6,1.9,2c-0.5,0-0.9,0-1.4,0c-33.3,0-34.2,35-36.2,39
		c-5,10.2-15.5,17.3-27.6,17.3c-16.9,0-30.7-13.7-30.7-30.7c0-16.9,13.7-30.7,30.7-30.7c1.6,0,3.2,0.1,4.8,0.4c0,0,33.8,0,33.8-33.6
		c0-1.2,0-2.3-0.1-3.4c0.6,1.1,1.4,1.1,2.7,0.8c1-0.2,1.3-1.2,1.3-2.3c1.5,0.7,1.7,1,3.4,2.1c2,1.3,2.7,1.3,3.2,3.4
		c0.5,2.2,4.1,2.9,6.3,2.9c2.2,0,1.6-1.8,1.6-1.8s0.7,1.6,0.4-0.9c-0.4-2.5-0.5-2,0.2-4.3c0.7-2.3,0-2.7-1.3-4.7
		c-1.3-2-0.5-1.4-0.9-6c-0.4-4.5-0.7-4-0.7-7c0-3.1,2.5-4.9,0.5-5.6c-2-0.7-2.3,0.7-4.7,2.3c-1.9,1.3-7.2,7.9-9.7,10.2
		c-0.1-0.6-0.2-1.1-0.3-1.4c-0.4-1.7-2.1-2.2-3.2-1.9c-1.3,0.4-1.2,2.2-1.2,3.5C128.6,2.1,104,1.2,104,1.2c-0.3,0-0.6,0-0.8,0
		c-3-1.4-6.1-1.9-10.1,0.2c-21,1.5-40.1,9.5-55.5,21.9c-2.1,0.3-4.1,1.1-6,2.8c-2.8,2.5-4.3,5-5.1,7.7C15.8,45.7,7.9,60.2,3.8,76.3
		c-1.4,1.4-2.4,3.1-2.8,5.1c-0.6,3.4-0.5,6.2,0.3,8.8c-0.4,3.4-0.5,6.9-0.5,10.4c0,17.8,4.7,34.5,12.9,49c0.5,2.9,1.5,5.8,3.3,8.6
		c2.2,3.3,4.8,5.5,7.7,7C43,186.5,70.1,200,100.3,200c9.8,0,19.3-1.4,28.3-4.1c1.5,0.2,3,0.1,4.7-0.4c2.5-0.7,4.6-2,6.4-3.6
		c31.3-13.5,54.2-42.5,59.1-77.4C199.3,110.6,202.2,83.4,177,76.5z"/>
	<path class="st1" d="M117.2,7.3c-10.9-1.5-14.9-12-25.6-4.9c-5.8,3.9-4.8,5.9-11.4,7.5c-4.6,1.1-8.6,5.7-15.6,11.7
		c-10.6,9.1-25-4.5-34.4,3.9c-8.8,7.8-3.2,16.4-5,30.7c-1.7,14.3-21.9,14.2-24,25.1c-2.2,11.4,5.1,15.9,12.4,31.2
		c7.4,15.2-6.1,31.1,3.6,45.8c10.1,15.3,30.5,7.8,38.3,13c7.8,5.2,9,20.3,18.6,23.5c7.8,2.6,19.6-6.7,31-8.1
		c11.8-1.4,17.7,12.6,29,9.6c11.3-3,12.7-18.8,19.5-25c8.4-7.6,17.5-6.2,24.2-12.9c5.4-5.4,4.6-15.6,8.2-26.1
		c2.6-7.5,8.5-9.7,9.4-24.7c0.8-13-9.1-27.7-23.7-29.3c-23.5-2.6-32.1,13.1-35,24c-2,7.4-2.6,9.5-5.8,13.6
		c-4.9,6.1-2.2,7.7-4.9,13.3c-2.6,5.6-4.8,5.3-13.5,4.9c-8.7-0.4-8.6,1.1-18.2,3c-8.2,1.6-7.5-3.2-13.6-8
		c-6.1-4.8-11.7-7.3-12.1-14.7c-0.4-7.4-7.3-11.9-5.5-20.4c1.3-6.2,5.3-4.3,10.3-12.9c3.7-6.3,3.3-14,11.9-15.7
		c6.1-1.3,8.6,2.9,14.1,2.5c3.5-0.2,7.6-3.7,13-7.4c6.9-4.8,19.6-0.7,22.1-17.5C137.7,20,126.7,8.6,117.2,7.3z"/>
	<path class="st2" d="M72.3,26c0,0-5,0.8-10.3,4.5"/>
	<path class="st2" d="M65.1,121c0,0-5.4-1.4-11.8-0.9"/>
	<path class="st2" d="M135.1,126.6c0,0,5.6-2.6,10.7-7.6"/>
	<path class="st2" d="M104.2,181.7c0,0,5.3,0.7,11.3-0.7"/>
	<path class="st2" d="M173.6,128.3c0,0,4.1-1.5,8.1-6"/>
	<path class="st3" d="M66,69.5c0,0,2-6.8,5.5-11.5"/>
	<path class="st4" d="M141.7,24.8c0,0,5.5-4.1,7.8-5.8"/>
	<path class="st4" d="M142.2,26.8c0,0,2-0.9,4.6-1.4c2.6-0.6,4.9-1.4,4.9-1.4"/>
	<path class="st4" d="M142.5,29.3c0,0,5.2-0.4,7.5,0.1"/>
	<path class="st4" d="M170,70.6c0,0,0.2-2.3-0.5-5.3c-0.7-2.9-1.1-5.6-1.1-5.6"/>
	<path class="st4" d="M172.5,72.5c0,0,0.1-3.1,0.4-6.3c0.3-3.2,0.6-5.5,0.6-5.5"/>
	<path class="st4" d="M175,71.2c0,0,1.2-2,3.2-4.1c2-2,3.2-4.3,3.2-4.3"/>
	<path class="st2" d="M94.2,18.7c3.8-2.8,8.3-6.7,11-10.4"/>
	<path class="st5" d="M87,50.4c0,0,5.7,5.3,12.8,8.4"/>
	<path class="st3" d="M184,95.5c-3.2-2.5-7.1-5.7-10.8-9.1"/>
	<path class="st5" d="M111.8,143.2c-3.2,2.7-7,5.3-11.2,6.4"/>
	<path class="st6" d="M59.4,109"/>
	<path class="st5" d="M132.3,176.6c0,0-2,6.1-3,12.2"/>
	<path class="st3" d="M86,182.2c0,0-6.8,2.4-13.7,3.8"/>
	<path class="st5" d="M27.2,151.3c0,0,4.8,4.3,13.3,5.5"/>
	<path class="st5" d="M56.6,100.9c0,0-2.6-6.2-3.1-12.3"/>
	<path class="st6" d="M43.3,107.6"/>
	<path class="st3" d="M173.3,138.1c0.1,3.6-0.3,8.3-2.7,12.2"/>
	<path class="st5" d="M47.9,34.2c0,0-4.2,8-9.8,11.6"/>
	<path class="st3" d="M65.3,132c0,0,6.1,3.5,9.9,8.1"/>
	<path class="st5" d="M144.8,104.9c0,0,0.7-7,3.2-12.4"/>
	<path class="st3" d="M21,130.9c0,0,6.6,2.5,11.1,6.3"/>
	<path class="st3" d="M119.2,28.9c0,0,7,1.1,12.1,4"/>
	<path class="st2" d="M17.7,78.2c0,0-0.5,5,1.7,11.2"/>
	<path class="st7" d="M90,10.3c0.3,0.7-1.2,1.3-2.8,2.1c-1.8,0.9-1.6,1.8-4.2,3.5c-2.7,1.7-3.4,0.7-3.3-0.1c0.2-1.6,2.2-3.2,4.9-4.6
		C87.1,9.9,89.7,9.7,90,10.3z"/>
	<path class="st7" d="M75.1,21.2c0.4,0.9,1.7,0.8,2.7,0.2c1-0.5,1-2.3,0.3-2.7c-0.6-0.4-1.6-0.6-2.4,0.4
		C74.9,20.2,74.8,20.7,75.1,21.2z"/>
	<path class="st7" d="M31,32.2c-0.7,1.6-0.7,3-0.7,4.9s-1,2.6-0.3,3.8c0.4,0.6,1.9,0.8,2.6-1.5c0.6-2.3-0.4-3.9,0.5-5.9
		c0.5-1,1.1-2.4,0-2.6C32,30.9,31.2,31.8,31,32.2z"/>
	<path class="st7" d="M30.4,42.7c-1-0.4-2.2,1.6-2.1,2.7c0.1,1.2,0.5,1.6,1.5,1.6c1,0,1.7-1.1,1.5-2.5C31,43.1,30.9,42.9,30.4,42.7z
		"/>
	<path class="st7" d="M7.6,93.8c-0.8,0.6-0.7,1.6,0.3,2.4c1,0.8,3.6,2.8,4.3,4.1c0.7,1.4,1.9,5.3,3.5,5.1c1.6-0.2,1.2-3-0.2-4.6
		c-1.4-1.5-4.1-3.1-4.9-4.6C9.8,94.7,8.3,93.2,7.6,93.8z"/>
	<path class="st7" d="M16,106.5c0.7-0.3,1.6,0.8,1.8,1.6s0.3,2.1-0.6,2.3c-0.8,0.3-1.7-0.8-1.9-1.7C15.3,107.9,15.4,106.8,16,106.5z
		"/>
	<path class="st7" d="M17.1,148.5c0.1,1.5,1.1,3.2,1.5,4.4c0.5,1.2,0.3,2.2,1.2,3.1s1.4-0.2,1.2-0.9c-0.2-0.6-0.8-2.3-1.3-3.3
		c-0.5-1-1.4-2.7-0.9-4c0.5-1.3,1.8-3,0.4-3.5C17.8,143.8,17,147,17.1,148.5z"/>
	<path class="st7" d="M167.2,161.1c2.3-0.6,4.9-1.8,5.4-3.8c0.3-1.4-0.4-1.8-1.4-1.1c-2.3,1.5-1,2.6-4.3,3.6c0,0-1.1,0.1-1,0.7
		C166.1,161.1,167.2,161.1,167.2,161.1z"/>
	<path class="st7" d="M151.5,165.8c-2.2,1.3-4.4,2.9-6,4.8c-2.3,2.6-2.9,4-3.3,5.3c-0.4,1.3-0.4,2,0.3,2.2c1.2,0.3,1.1-0.6,3.3-3.8
		c1.9-2.9,4.4-5.7,8.2-7.5c0,0,1.3-0.2,0.3-1.2C153.3,164.7,151.5,165.8,151.5,165.8z"/>
	<path class="st7" d="M190.8,117.9c0.9-2.4,1.4-5.4,1.3-6.2c-0.2-0.9-1.2-0.7-1.5-0.2c-0.2,0.4-0.3,2.6-1.4,5.4
		c-0.2,0.5-0.6,1.9,0.1,2.2C190.1,119.3,190.7,118.3,190.8,117.9z"/>
	<path class="st7" d="M192.1,109.5c0.7,0.3,1-1.2,0.9-2.1c-0.1-0.9-0.4-1.3-0.8-1.2c-0.4,0-1,1-0.9,1.8
		C191.4,108.7,191.7,109.4,192.1,109.5z"/>
	<path class="st7" d="M118.8,137.8c0.7,0.1,1.4,0.1,1.9,0.1c2.4,0,4.6-1.2,5.8-2.8c0.8-1.2,1.3-2.2,0.4-2.2
		c-0.9-0.1-3.1,2.9-4.8,3.6c-0.6,0.3-1.8,0.4-3,0.4c0,0-0.8,0-0.9,0.5C118,137.7,118.8,137.8,118.8,137.8z"/>
	<path class="st7" d="M107.2,136.8c-2.1,0.3-4.8,0.8-6.5,1.3c-2.6,0.7-5,0.9-6.7,1.5c-2.1,0.7-2.7,1.7-1.6,2.1
		c1.6,0.6,4.8-1.1,7-1.8c1.7-0.6,4.5-1.4,6.8-1.6c1.2-0.1,2.3-0.3,2.6-0.9C109.2,136.5,107.2,136.8,107.2,136.8z"/>
	<path class="st7" d="M112.1,54.1c2.2-0.8,3.7-1.9,7.6-1.1c3.9,0.9,5.4-2.6,7.1-2.8c1.7-0.2,1.9,0.9,0.2,2.4c-1.7,1.5-4.1,3-7.1,2.6
		c-3-0.4-5.2-0.1-6.7,0.3c-1.5,0.4-2.9,1.5-3.2,0.3C109.7,55.2,111.3,54.4,112.1,54.1z"/>
	<path class="st7" d="M114.8,14.2c-0.9,0.7-0.3,1.5,0.9,3.4c1.3,2,2.8,3.6,4,2c0.8-1.1-0.5-2.8-2-3.9
		C116.1,14.7,115.3,13.8,114.8,14.2z"/>
	<path class="st7" d="M66.9,82.9c0.7,0.7,2.4,0.2,3.8-2.2c1.3-2.4,2.2-6,3.3-7.9c1.1-1.9,1.1-3.1,0.1-3.3c-1-0.2-2,1-2.3,2.8
		c-0.3,1.8-0.2,4-1.7,5.6c-1.4,1.7-2.1,1.3-3.1,2.4C66.1,81.3,66.5,82.4,66.9,82.9z"/>
	<path class="st7" d="M127.7,44.6c0.4,1.1,1.4,1.2,2,0.4c0.6-0.8,0.2-3-1-2.8C127.5,42.4,127.5,44,127.7,44.6z"/>
	<path class="st8" d="M111.5,40.9c-0.1,0.3-1.2,2.9-1.2,2.9s-1.4-0.2-5.3-0.3c-3.9-0.1-6.6-1-6.6-1s0.6-1.6,2.2-3.6
		c1.5-1.9,7.2-8.9,7.2-8.9s-2.4-0.3-4.8-0.4c-2.4-0.1-3.7-0.4-3.7-0.4s-0.2-1.5,0.4-2.6c0,0,3.2,0.2,5.8,0.3c2.6,0.1,7.4,0,7.4,0
		v2.2c0,0-5.3,4.7-7,6.9s-2.2,4.2-2.2,4.2s2.8,0.2,4.2,0.3C109.5,40.6,111.5,40.9,111.5,40.9z"/>
	<path class="st8" d="M91.9,44.5l3.5-1.2c0,0-2.2-8.7-3.4-11.1c-1.2-2.5-2.3-5.9-6.8-4.5c0,0-5.9,1.8-6.7,6.4
		c-0.8,4.5,0.5,6.3,1.1,9c0.5,2.7,0.8,3.6,0.8,3.6l2.8-1.2c0,0-2.5-9-0.8-11.4c1.7-2.4,4.2-3.9,5.4-2.2c1.2,1.7,2.9,8,3.2,9.5
		C91.4,42.9,91.9,44.5,91.9,44.5z"/>
	<path class="st8" d="M61.4,50.9l3.9-2.5c0,0,2.9,2.5,4.4,0.5c1.5-1.9,1.3-5.3-1-8c-2-2.4-3.9-2.4-5.5-0.6c-1.8,1.9-1.1,5-1.1,5
		l-3.4,2.1c0,0-1.9-3.4-0.4-6.7c1.7-3.9,6.6-7.1,10.3-5c2.7,1.6,6.8,5.6,5.9,10.7c-0.9,5.1-5.7,8-8.8,7.1
		C62.8,52.6,61.4,50.9,61.4,50.9z"/>
	<path class="st8" d="M63.1,56.4l-2.3,2.8c0,0-7.2-4.7-9.6-6.5c-2.4-1.8-4.7-4-4.7-4s1-2.1,1.6-2.6c0,0,3.2,3,4.9,4.1
		c1.6,1.1,5.3,2.8,6.5,3.7C60.7,54.8,63.1,56.4,63.1,56.4z"/>
	<path class="st8" d="M55.9,55.1c0,0.3-0.2,2.4,0.1,4.2c0.3,1.8,0.5,5.8,0.5,5.8L54,68.8c0,0-1.2-2.8-1.2-4.7c0-1.8-0.4-6.4-0.5-7.6
		c-0.1-1.2-0.2-4.1-0.2-4.1L55.9,55.1z"/>
	<path class="st8" d="M40.8,57.9c0.3-0.8,1.1-1.7,1.1-2.3c0-0.5,0.2-1.1,0.2-1.1s4,0.6,6.4,0.4c2.4-0.2,4.5-0.9,4.5-0.9v3.4
		c0,0-2.5,0.4-6.6,0.6C42.3,58.4,40.8,57.9,40.8,57.9z"/>
	<path class="st8" d="M46.2,81.7c0,0,1.3-2.1,2.2-4.5c0.9-2.5,1.9-4.3,2.2-4.8c0.2-0.4,0.9-1.7,0.9-1.7l-3.2-1.2
		c0,0-1.4,3.1-1.8,4.8c-0.4,1.6-1.5,5.6-1.5,5.6L46.2,81.7z"/>
	<path class="st8" d="M40.3,77.6c0,0,1.2-2.3,2.3-3.9c1.1-1.6,2.3-4.1,2.3-4.1l-4-1.5c0,0-0.1,1.5-0.9,3.9c-0.8,2.4-1.8,4.7-1.8,4.7
		L40.3,77.6z"/>
	<path class="st8" d="M33.7,74.9c0,0,1.6-2.6,2.8-4.3c1.2-1.7,2.2-3.7,2.2-3.7L36,65.1c0,0-1.9,3.2-2.8,5.2
		c-0.9,1.9-1.6,3.4-1.6,3.4L33.7,74.9z"/>
	<path class="st8" d="M34.4,68.4l2.1-4.5c0,0,5.3,2.2,7.1,3c1.8,0.9,8.2,3.2,8.2,3.2L49.9,73c0,0-2.8-0.6-4.4-1.3s-8.5-3.5-8.9-3.6
		C36.2,68,34.4,68.4,34.4,68.4z"/>
	<path class="st8" d="M35.6,82.9c0,0-0.4,2.6-0.5,5.2c-0.1,2.6-0.8,9.5,5.1,9.2s6.3-12.4,6.3-12.4L35.6,82.9z M39.3,93.4
		c-3.5-0.1-1.6-6.4-1.6-6.4l5.2,0.6C42.8,87.7,42.7,93.5,39.3,93.4z"/>
	<path class="st8" d="M27.7,81.5c0.3,0,4.7,0.2,6.4,0.8c1.7,0.5,6.6,1.6,6.6,1.6l-4.1,2.9c0,0-4.2-1-6.2-1.2
		c-1.9-0.2-2.4-0.2-2.4-0.2L27.7,81.5z"/>
	<path class="st8" d="M26.5,92c0,0,3.1,0.5,5.1,0c1.9-0.5,2.9-1.9,2.9-3.4c0-1.4,0.2-3.5,0.2-3.5l1.7,0.5c0,0-0.1,7.1-0.1,7.8
		s-0.4,2.8-4.8,2.6c-4.3-0.2-5.3,0-5.2-0.3C26.5,95.5,26.5,92,26.5,92z"/>
	<path class="st7" d="M46,114c-0.5-1.4-1.9-2.4-4.7-1.4c-2.7,1-3.1,2.2-3.1,2.2l0.4,1.7l0.5,2.1c0,0,2.3,1.8,4.9,0.5
		C46.6,117.8,46.5,115.4,46,114z M42.4,116.6c-0.9,0-1.6-0.8-1.6-0.8s0.5-0.9,1.2-1.4c0.7-0.5,1.6-0.5,1.9,0.4
		C44.4,116.2,43.5,116.5,42.4,116.6z"/>
	<path class="st8" d="M32.5,112.8c-3.7,1.5-4,6.1-2.6,7.8c1.4,1.7,4.1,1.9,5.4,1.5c1.6-0.4,4.3-2.2,4.2-5
		C39.5,114.3,36.2,111.3,32.5,112.8z M34.9,119.5c-1.6,0.4-2.8-0.2-3.1-1.5s0.8-2.6,2.1-2.8c1.3-0.2,2,0.7,2.3,1.2
		C36.5,117,36.4,119.1,34.9,119.5z"/>
	<path class="st8" d="M32.8,121c0,0-0.4,1.8-1,2.7c-0.6,0.9-1.5,1.7-1.2,2.1c0.3,0.4,1.8,1.6,1.8,1.6s1.2-1,2.1-2.6
		c0.9-1.6,1.7-3.8,1.7-3.8L32.8,121z"/>
	<path class="st8" d="M36.2,120.6c0,0,0.9,0.9,2.1,1.3c1.2,0.4,1.5,0.5,1.5,0.5s-0.2,1.2-0.3,1.8c-0.1,0.6-0.1,0.6-0.1,0.6
		s-2.5,0.5-3.5-0.1c-1-0.6-2.2-1.1-2.2-1.1L36.2,120.6z"/>
	<path class="st8" d="M43.9,138.2c0,0-0.1,0.6,1,1.2s1.5,1.1,1.5,1.1s-0.8,0.8-1,1.5c-0.2,0.8,0,3,1.6,2.3s4.7-2.7,6.8-4.2
		c2.1-1.5,4.1-3.6,4.1-3.6s1,0.5,1.5,1.2c0.5,0.7,0.4,1.5,0.4,1.5s-2.3,1.9-4.9,4c-2.6,2.1-6.4,5.1-10.1,4.2
		c-3.6-0.9-4.2-3.9-3.2-6.1C42.5,139.4,43.9,138.2,43.9,138.2z"/>
	<g>
		<path class="st8" d="M52.4,154.5c0.2-0.1,3.6-2.5,5-3.4c1.4-0.9,4.9-3.4,5.6-3.8c0.6-0.4,2.4-2.1,3-2.1c0.5,0,1.1,0.6,1.7,1.1
			c0.6,0.4,1.4,0.7,1,1.4c-0.4,0.6-0.5,1.5-1.5,3.8c-0.9,2.4-3.5,8.7-3.8,10.1s-0.5,2.2-0.5,2.2l-2-1.6c0,0,1.5-6.3,1.8-7.3
			c0.3-1,3.1-6.1,3.1-6.1s-2.6,3.1-5.2,5c-2.6,1.9-6,3.5-6.3,3.6c-0.3,0.1-1-0.9-1.1-1.5C52.9,155.3,52.4,154.5,52.4,154.5z"/>
		<path class="st8" d="M58.3,154.2c0.2,0.1,1.3,1.4,2.4,2.3c1.1,0.9,1.9,1.9,1.9,1.9l0.9-2.9c0,0-1.9-1.3-2.7-2.4
			c-0.8-1.1-1.2-0.9-1.2-0.9L58.3,154.2z"/>
	</g>
	<g>
		<path class="st8" d="M83.8,161l3.2-0.7c0,0-0.1-4.3-4.2-5.7c-4.1-1.4-8.4,1.5-10.3,4.4c-1.9,2.9-2.5,11,2.5,12.9
			c3.8,1.4,6.5-0.5,6.5-0.5l1.5-4.7l-0.8-0.6c0,0-1.8,3.4-5.2,2.2c-3.4-1.1-3.3-5-2.5-6.9c0.8-1.9,4-4.2,6.6-3.2
			C83.9,159.1,83.8,161,83.8,161z"/>
		<path class="st8" d="M82,167.5c0.1-0.3,0.3-1.4,0.3-1.4s1.8,0.4,2.4,0.5c0.6,0.2,1.2,0.4,1.2,0.4s-1,1.6-1.4,3
			c-0.4,1.4-1.2,4.4-1.2,4.4s-1-0.6-1.7-0.7c-0.8-0.1-1-0.5-1-0.5s0.8-2.5,1-3.4C81.9,169,82,167.5,82,167.5z"/>
	</g>
	<path class="st8" d="M101,158c-6-0.8-8,0.6-8,0.6s-0.6,8.9-0.8,11c-0.2,2-0.6,7.3-0.3,7.3c0.2,0,3,0.5,4.9,0.3
		c1.9-0.2,7.9-1.1,9.2-6.8C107.2,164.5,107,158.8,101,158z M102.7,167.9c-0.4,6.2-7.5,6-7.5,6s-0.2-1.5,0.2-4.1
		c0.5-2.7,0.9-9.2,0.9-9.2S103.3,158.5,102.7,167.9z"/>
	<path class="st8" d="M112.7,156.6l-2.7,1.7c0,0,4.1,5.3,5.4,7.4s5.9,7.2,5.9,7.2s2.5-1,2.5-1.2c0-0.2-1-9.7-1-9.7s2.8,1.8,4.8,4.3
		c2.1,2.6,2.8,3.3,2.8,3.3l2.4-0.8c0,0-1-6.9-1.5-11.2c-0.5-4.3-1.4-8.3-1.4-8.3s-2.1,0.3-2.5,0.5c-0.4,0.2-0.1,3.1,0.1,4.6
		c0.1,0.9,1.2,8.5,1.2,8.2c0-0.2-3.7-5-4.7-6.8c-1.1-1.9-2-3.5-2-3.5l-3,1.3c0,0,0.3,4.6,0.8,7.6c0.3,2,1.1,6,1.1,6
		s-4.6-6.1-5.7-7.8C114.1,157.7,112.7,156.6,112.7,156.6z"/>
	<path class="st8" d="M133.1,148.4l2.2-1.7c0,0,3.9,4.8,5.8,6.1c1.9,1.3,4.4,2.6,5.4,1.5c1-1.1,1.5-2.8-0.4-5.9
		c-1.9-3.1-5.8-6.7-5.8-6.7l2.8-2.8c0,0,3.9,4.9,5.6,7.3c1.7,2.4,4.8,6.8,1.4,10.1s-7.6,2.7-11-0.1
		C134.5,152.5,133.1,148.4,133.1,148.4z"/>
	<path class="st8" d="M161.9,133c1.9,0.5,4.1,2.4,4.1,2.4l2.3-3.2c0,0-0.2-0.3-3-2.4s-6-0.6-6-0.6s-0.3-1.9-1.6-3.2
		s-3.9-1.1-6.6,0.6c-2.7,1.8-4.6,7.1-4.6,7.1s3.1,2.2,7,5c3.9,2.8,7.4,5.3,7.5,5.5c0.1,0.2,1.7-3.3,1.7-3.3s-1.2-1.1-2.8-2.3
		c-1.5-1.1-2.3-3.7-1.8-4.9C158.6,132.7,160,132.5,161.9,133z M155.4,132.1c-0.7,1.2-1.3,1.9-1.3,1.9l-3.6-2.2c0,0,0.7-1.4,1.5-2.2
		c0.8-0.8,2.4-1.2,3-0.5S156.1,130.9,155.4,132.1z"/>
	<path class="st8" d="M161.9,111.8l0.8-3.1c0,0-3.5-0.2-5.9,1.5c-2.4,1.8-3,5-2.7,7c0.3,1.9,1.7,5.5,5.4,4.4c3.7-1.1,5-5.3,6.9-6.7
		s4.1-0.8,4.5,0.9s0.3,4.2-1.9,4.5c-2.2,0.2-3.1,0.2-3.1,0.2s-0.1,1.6-0.2,2.3c-0.1,0.6-0.4,1.4-0.4,1.4s4.9,0.6,7.3-1.8
		c2.4-2.4,3.1-7.5,1.4-9.6c-1.7-2.1-5.3-4-7.9-1.5s-4.5,6.8-6.7,6.7c-2.1-0.2-2.9-4-0.7-5S161.9,111.8,161.9,111.8z"/>
	<path class="st8" d="M157.3,106.8c0,0,2.8,0,2.8-0.2s0.5-4.1-0.4-7.1s-1.5-8-1.5-8l-2.8,1.1c0,0,0.5,3.1,0.6,4.5
		C156.2,98.6,157.3,106.8,157.3,106.8z"/>
	<path class="st8" d="M158.7,98.5c0,0,4.9-0.5,6.4-0.7c1.5-0.2,7.4-0.6,7.4-0.6s1.2-0.2,1.7,0.3c0.5,0.6,0.6,2.6,0.6,2.6
		s-6.6,1.1-10.2,1.5s-6,0.6-6,0.6L158.7,98.5z"/>
</g>
</svg>
