<?xml version="1.0" encoding="utf-8"?>
<!-- Generator: Adobe Illustrator 25.0.0, SVG Export Plug-In . SVG Version: 6.00 Build 0)  -->
<svg version="1.1" id="Ebene_1" xmlns="http://www.w3.org/2000/svg" xmlns:xlink="http://www.w3.org/1999/xlink" x="0px" y="0px"
	 viewBox="0 0 600 76.8" style="enable-background:new 0 0 600 76.8;" xml:space="preserve">
<style type="text/css">
	.st0{fill:#030303;}
	.st1{fill:#030303;stroke:#A6539B;stroke-width:1.1926;stroke-linecap:round;stroke-miterlimit:10;}
	.st2{enable-background:new    ;}
	.st3{fill:none;}
	.st4{display:none;}
	.st5{font-family:'Function-Bold';}
	.st6{font-size:32px;}
</style>
<g>
	<path class="st0" d="M5.4,6.2C5.6,5.7,8,1.5,8,1.5c3,0.7,5.9,1.2,9,1.6c3.8,0.5,7.5,1.5,11,3c-1.2,2.1-2.7,3.9-4.4,5.6
		c-3,3-14.1,13.7-14.1,13.7s4,1,8,1.7c2.1,0.3,4.2,0.8,6.2,1.5c0,1.5-0.4,3-1.3,4.3c0,0-5.5-1-9.9-1.7S0,29.6,0,29.6l0.4-3.7
		c0,0,9.9-6.8,13.4-10.4c1.9-1.9,3.5-4.2,4.5-6.7l-7.1-1.4C8.9,7,5.4,6.2,5.4,6.2z"/>
	<path class="st0" d="M44.6,2.1L38.4,3c0,0,0.8,15.3,2,19.9s1.9,10.8,10,9.9c0,0,10.6-1.1,13.4-8.5S65,13.6,64.9,8.8
		s-0.1-6.2-0.1-6.2l-5.1,1c0,0,1.2,15.9-2.5,19.4c-3.7,3.4-8.4,5.2-9.8,1.9c-1.4-3.3-2.3-14.4-2.3-17.1S44.6,2.1,44.6,2.1z"/>
	<path class="st0" d="M104.9,12.9L97,12.6c0,0-1.7-6.4-5.7-5.1s-7,6.2-6.5,12.2c0.5,5.5,3.1,7.2,7.1,6.3c4.4-0.9,6.4-5.9,6.4-5.9
		l6.7,0.4c0,0-0.6,6.6-6,9.9c-6.2,3.8-16.3,3.6-19.3-3.1c-2.3-4.9-4.1-14.6,2.1-20.9s15.9-5.6,19.3-1.5S104.9,12.9,104.9,12.9z"/>
	<path class="st0" d="M113.1,2.8l6.1,0.8c0,0-0.3,14.8-0.8,19.9s-1.6,10.4-1.6,10.4s-3.9,0.4-5.3,0c0,0,1.5-7.5,1.6-10.8
		s-0.7-10.3-0.5-12.8C112.8,7.8,113.1,2.8,113.1,2.8z"/>
	<path class="st0" d="M117.6,14.4c2.2-1.1,4.2-2.4,6-4c2.4-2.1,8-6.1,8-6.1l7.5,0.6c0,0-3,4.3-5.7,5.9c-2.7,1.7-8.9,6.4-10.6,7.6
		c-1.6,1.2-5.8,4-5.8,4L117.6,14.4z"/>
	<path class="st0" d="M135.3,33.9c-1.4,0.2-3.5,0-4.3,0.5c-0.5,0.3-1.1,0.5-1.8,0.7c0,0-2.7-6.4-5.1-9.7c-1.6-2.1-3.4-4.1-5.4-5.8
		l4.9-3c2.5,2.9,4.8,5.9,6.9,9C134.6,31.3,135.3,33.9,135.3,33.9z"/>
	<path class="st0" d="M171,2.9c-2.9-0.4-5.7-0.5-8.6-0.3c-3,0.2-6,0.1-9-0.2l-3.3-0.2l0.3,5.9c2.9,0.1,5.8-0.1,8.7-0.3l9.9-1.4
		L171,2.9z"/>
	<path class="st0" d="M168.5,14.9c0,0-4.4-0.3-7.7-0.9c-2.7-0.4-5.3-0.7-8-0.8l0.3,7.3c2.2-0.7,4.4-1.1,6.7-1.3
		c2.9-0.3,5.7-0.3,8.6-0.2L168.5,14.9z"/>
	<path class="st0" d="M168.7,27.1c0,0-5.2-0.8-8.7-1.5c-2.4-0.5-4.8-0.8-7.3-0.9l-1.1,5.5c0,0,6.4,0.9,10.1,0.9
		c3.7,0,6.4,0.3,6.4,0.3L168.7,27.1z"/>
	<path class="st0" d="M158.1,30.5l-8.6-0.2c0,0-0.2-9.8-0.1-13.3c0.1-3.5-0.5-15.1-0.5-15.1l5.7,1.2c0.5,2.6,0.8,5.2,1,7.9
		c0.1,3,0.3,15.8,0.4,16.4S158.1,30.5,158.1,30.5z"/>
	<path class="st0" d="M182.6,21.5c3-0.1,6-0.3,8.9-0.7c4.4-0.6,16.3-1.7,13.9-11.4s-22.9-6.7-22.9-6.7L182.6,21.5z M199.1,12.1
		c0.9,5.9-10.3,4.7-10.3,4.7l-0.5-9C188.4,7.8,198.2,6.2,199.1,12.1z"/>
	<path class="st0" d="M182.6,35.3c-0.1-0.5-1.1-7.9-0.7-11c0.4-3.1,0.7-11.6,0.7-11.6l6.2,6c0,0-0.3,7.4-0.1,10.8s0.4,4.1,0.4,4.1
		L182.6,35.3z"/>
	<path class="st0" d="M200.7,34.1c0,0-0.1-5.5-1.6-8.6s-4.2-4.3-6.6-3.9c-2.4,0.4-5.9,0.7-5.9,0.7l0.4-3.1c0,0,12.1-2,13.2-2.2
		c1.1-0.2,4.9-0.1,5.8,7.2c1,7.4,1.6,8.9,1.1,8.9C206.5,33,200.7,34.1,200.7,34.1z"/>
	<path class="st0" d="M283.4,23.2c0,0,0.7,0.8,2.8-0.2c0.9-0.5,1.9-0.8,3-0.9c0.1,1.1,0.5,2.1,1.1,3c0.8,1.1,4.1,3,4.8,0.2
		c0.7-2.8,1-9.2,1.1-13.6c0-3.1-0.3-6.3-0.8-9.4c1-0.5,2.1-0.8,3.3-0.8c0.9,0,1.7,0.3,2.5,0.9l0.6,10.9c0.3,5.7,0.6,14.1-4.3,18.2
		s-9.7,1.9-11.7-1.8C284.4,27.6,283.7,25.4,283.4,23.2z"/>
	<path class="st0" d="M369.5,12.4l4.9-2.7c0,0-2.2-7-9.5-7.4s-13.1,6.3-14.9,12s1,19.3,10.1,20.1c3.9,0.4,7.8-1,10.6-3.9l0.3-8.4
		l-1.6-0.6c0,0-1.4,6.4-7.5,6.1s-7.8-6.8-7.3-10.2c0.5-3.5,4.7-8.7,9.4-8.4C368.6,9.2,369.5,12.4,369.5,12.4z"/>
	<path class="st0" d="M369.6,24c0.1-0.5-0.1-2.5-0.1-2.5s3.2-0.2,4.3-0.2c0.7,0,1.4,0.1,2.2,0.2c-0.5,1.9-0.8,3.7-0.9,5.7
		c-0.1,2.5,0.1,7.8,0.1,7.8c-1-0.3-2.1-0.4-3.2-0.4c-0.6,0.2-1.3,0-1.8-0.3c0,0,0.1-4.5,0-6.1C370,26.5,369.6,24,369.6,24z"/>
	<path class="st0" d="M402.4,1.6c-10.3-1.4-13.8,1-13.8,1s-1,15.3-1.4,18.8s-1,12.5-0.6,12.5s5.1,0.8,8.5,0.6
		c3.3-0.3,13.6-1.8,15.7-11.7S412.7,3,402.4,1.6z M405.4,18.7c-0.7,10.6-13,10.3-13,10.3c-0.2-2.4-0.1-4.8,0.4-7.1
		c0.8-4.6,1.6-15.9,1.6-15.9S406.3,2.6,405.4,18.7L405.4,18.7z"/>
	<path class="st0" d="M429.4,3.2L424,4.1c0,0,3.1,11.1,3.7,15.2s4.8,15.2,4.8,15.2s4.6,0,4.8-0.4C437.5,33.7,442,18,442,18
		c2.1,3.1,3.8,6.4,4.9,10c1.6,5.4,2.3,7,2.3,7l4.4,0.2c0,0,2.9-11.6,4.8-18.7s3.1-14,3.1-14c-1.4-0.3-2.9-0.6-4.3-0.8
		c-0.8,0-2.2,4.9-2.8,7.5c-0.4,1.5-3.6,14.2-3.4,13.8s-2.6-10.2-3.1-13.9c-0.5-3.6-0.9-6.9-0.9-6.9l-5.6,0.2c0,0-2.4,7.5-3.6,12.6
		c-0.8,3.4-2.1,10.3-2.1,10.3s-3.3-12.6-4.1-16C431.2,7.2,430.4,5.2,429.4,3.2z"/>
	<path class="st0" d="M473.7,4.5l4.8,0.1c0,0-0.1,10.6,1.1,14.4s2.9,8.2,5.4,7.9c2.4-0.3,5.1-2.1,5.9-8.3s-0.4-15.3-0.4-15.3
		l6.7-0.6c0,0-0.2,10.7-0.6,15.8s-1.1,14.2-9.2,14.8c-8.1,0.6-12.9-4.8-14.4-12.1C471,11.5,473.7,4.5,473.7,4.5z"/>
	<path class="st0" d="M526.9,24.6c1.1,3.3,0.5,8.1,0.5,8.1l6.7,0.3c0,0,0.2-0.7,0.7-6.6s-4.8-9.1-4.8-9.1c1.5-1.5,2.5-3.3,3-5.3
		c0.6-3.1-2-6.6-7.1-8.8s-14.5,0-14.5,0s-0.2,6.5-0.6,14.7s-0.6,15.5-0.9,15.9c-0.3,0.3,6.4-0.7,6.4-0.7c0.3-2,0.5-4,0.7-6.1
		c0.2-3.3,3.2-6.8,5.3-7.1C524.2,19.6,525.7,21.4,526.9,24.6z M522,14.4c-1.3,0.1-2.7,0.1-4,0l-0.2-7.2c1.5-0.1,3.1-0.1,4.6,0.1
		c1.9,0.4,4,2.2,3.5,3.8C525.5,13.1,523.9,14.4,522,14.4L522,14.4z"/>
	<path class="st0" d="M561.2,12.6l5.4,0.8c0,0-0.3-6-3.8-9.8s-9.2-4.1-12.4-3.1s-9,4-6.4,10c2.7,6,10,7.5,12.9,10.4s2.2,6.7-0.6,7.9
		s-7.1,1.4-8-2.3c-0.5-1.7-0.8-3.5-0.9-5.2c0,0-2.8,0.2-3.9,0.2c-0.8,0-1.6-0.2-2.4-0.4c0,0-0.1,8.4,4.5,12.1s13.3,3.7,16.6,0.4
		s5.7-9.8,0.9-13.7s-12.5-6.3-12.7-10s6.2-5.8,8.4-2.3S561.2,12.6,561.2,12.6z"/>
	<path class="st0" d="M573.8,4.6c0,0-0.2,4.7,0.2,4.7s6.9,1.2,12.1-0.1S600,7.3,600,7.3l-1.7-5c0,0-5.3,0.6-7.8,0.8
		S573.8,4.6,573.8,4.6z"/>
	<path class="st0" d="M587.9,7.6c0,0,0.4,8.4,0.8,11s0.5,12.7,0.5,12.7s0.3,2.1-0.7,2.9c-1,0.8-4.5,0.9-4.5,0.9s-1.4-11.3-1.8-17.6
		c-0.4-6.3-0.6-10.3-0.6-10.3L587.9,7.6z"/>
	<path class="st0" d="M243.7,3.2c-2.6,0.4-4.7,2.3-4.1,7.2c0.6,4.9,2.4,6.1,2.4,6.1l3.1-0.1l3.6-0.1c0,0,3.9-3.1,2.8-7.9
		C250.3,3.6,246.3,2.8,243.7,3.2z M246.8,10.1c-0.3,1-1,1.9-1.9,2.3c-0.8-0.7-1.4-1.5-1.8-2.4c-0.5-1.3-0.2-2.9,1.4-3.1
		C246.8,6.6,247.1,8.2,246.8,10.1z"/>
	<path class="st0" d="M236.6,25.1c1.1,6.7,8.6,9,12,7.3c3.4-1.7,4.7-6,4.6-8.5c-0.1-2.8-2-8.1-6.7-9
		C241.8,14.2,235.5,18.4,236.6,25.1z M248.7,23.8c0,2.8-1.3,4.5-3.6,4.6s-4.1-2.4-3.9-4.6c0.2-1.6,1.4-3,3-3.3
		C245.2,20.2,248.7,21.1,248.7,23.8z"/>
	<path class="st0" d="M250.4,27.8c0,0,2.9,1.3,4.1,2.7c1.2,1.3,2.3,3.2,3,2.9c1.2-0.7,2.3-1.5,3.4-2.3c-0.9-1.7-2.1-3.2-3.5-4.5
		c-1.8-1.6-3.7-3-5.7-4.2L250.4,27.8z"/>
	<path class="st0" d="M251,22.1c1.2-0.7,2.2-1.8,3-2.9c0.4-0.8,0.9-1.5,1.5-2.2c0,0,1.9,0.7,2.9,1.1l1,0.4c0,0-0.1,4.3-1.6,5.8
		c-1.4,1.5-2.7,3.3-2.7,3.3L251,22.1z"/>
	<path class="st0" d="M313.8,32c0.2-0.3,2.5-7.5,3.5-10.2s3.4-10.1,3.8-11.4s1.2-5.6,1.9-6.2s2.2-0.2,3.6-0.3s2.7-0.5,2.9,0.9
		c0.2,1.3,0.8,2.7,2.1,7.1c1.3,4.4,4.4,16.1,5.5,18.6c1.1,2.4,1.7,3.6,1.7,3.6l-4.6-0.1c0,0-4.7-10.5-5.4-12.3
		c-0.7-1.8-2.2-12.1-2.2-12.1c-0.3,4.3-1,8.6-2,12.9c-1.3,4.1-3,8.1-5.1,11.9c-0.3,0.4-2.4-0.3-3.2-0.8
		C315.5,32.7,314.7,32.3,313.8,32z"/>
	<path class="st0" d="M321.9,25.1c0.4,0,3.4,0.6,5.9,0.7c1.6,0.1,3.2,0.3,4.8,0.7l-1.9-5.2c0,0-4.1,0.2-6.5-0.5s-2.7,0-2.7,0
		L321.9,25.1z"/>
	<path class="st1" d="M304.2,32.7"/>
	<path class="st1" d="M312.6,25.3"/>
</g>
<g id="veganer_Foodblog" class="st2">
	<path class="st0" d="M178.8,55.4l3.6,7.6l3.5-7.6h4.2l-7,13.8h-1.7l-6.9-13.8C174.5,55.4,178.8,55.4,178.8,55.4z"/>
	<path class="st0" d="M205.2,62.7h-10.1c0,1.2,0.3,2.1,0.9,2.7c0.6,0.6,1.4,0.9,2.4,0.9c1.3,0,2.4-0.6,3.2-1.8l3.5,0.6
		c-1.1,2.8-3.3,4.2-6.6,4.2c-2.2,0-4-0.6-5.3-1.9s-2-3-2-5.2c0-2.2,0.6-4,1.9-5.3c1.3-1.3,3-1.9,5.2-1.9c2.1,0,3.8,0.7,5.1,1.9
		c1.2,1.3,1.9,3.1,1.9,5.3L205.2,62.7L205.2,62.7z M195.2,60.3h6.4c-0.2-0.9-0.6-1.5-1.1-2s-1.2-0.7-2.1-0.7
		C196.7,57.6,195.6,58.5,195.2,60.3z"/>
	<path class="st0" d="M222.2,55.4v13c0,1.4-0.1,2.5-0.3,3.2s-0.6,1.5-1.3,2.2c-0.6,0.7-1.4,1.3-2.4,1.7c-1,0.4-2,0.6-3.3,0.6
		c-1.9,0-3.6-0.5-4.9-1.6c-1.3-1-2.1-2.4-2.3-4.1h4.1c0.4,1.6,1.4,2.4,3.2,2.4c2.2,0,3.4-1.3,3.4-3.8v-2c-0.7,0.8-1.4,1.4-2.1,1.7
		c-0.7,0.3-1.5,0.5-2.4,0.5c-1.9,0-3.5-0.7-4.7-2s-1.8-3-1.8-5.1c0-2.1,0.6-3.8,1.9-5.2c1.2-1.4,2.8-2.1,4.6-2.1
		c1,0,1.9,0.2,2.5,0.5s1.3,0.9,2,1.7v-1.7h3.8V55.4z M215.1,58.3c-1.1,0-2,0.4-2.7,1.1c-0.7,0.7-1.1,1.6-1.1,2.7s0.4,1.9,1.1,2.7
		c0.7,0.8,1.6,1.1,2.7,1.1c1.1,0,2-0.4,2.7-1.1s1.1-1.6,1.1-2.7c0-1.1-0.4-2-1.1-2.7C217.1,58.7,216.2,58.3,215.1,58.3z"/>
	<path class="st0" d="M236.1,55.4h3.8v13.5h-3.8v-1.7c-1.2,1.5-2.7,2.2-4.4,2.2c-1.9,0-3.5-0.7-4.8-2.1s-1.9-3.1-1.9-5.2
		c0-2,0.6-3.7,1.9-5.1c1.3-1.4,2.8-2.1,4.7-2.1c1.7,0,3.2,0.7,4.5,2.2V55.4z M232.8,58.3c-1.1,0-2,0.4-2.7,1.1
		c-0.7,0.7-1.1,1.6-1.1,2.7s0.4,1.9,1.1,2.7c0.7,0.8,1.6,1.1,2.7,1.1c1.1,0,2-0.4,2.7-1.1s1.1-1.6,1.1-2.7c0-1.1-0.4-2-1.1-2.7
		C234.7,58.7,233.8,58.3,232.8,58.3z"/>
	<path class="st0" d="M243.5,55.4h3.8v1.7c0.6-0.7,1.2-1.3,1.9-1.6s1.5-0.5,2.4-0.5c1.6,0,2.8,0.4,3.5,1.2s1.1,1.4,1.2,2
		c0.2,0.6,0.2,1.3,0.2,2.2V69h-3.8v-7.5c0-1.2-0.2-2-0.6-2.5c-0.4-0.5-1.1-0.7-2-0.7c-1.9,0-2.9,1.2-2.9,3.7v7h-3.8L243.5,55.4
		L243.5,55.4z"/>
	<path class="st0" d="M273.4,62.7h-10.1c0,1.2,0.3,2.1,0.9,2.7s1.4,0.9,2.4,0.9c1.3,0,2.4-0.6,3.2-1.8l3.5,0.6
		c-1.1,2.8-3.3,4.2-6.6,4.2c-2.2,0-4-0.6-5.3-1.9s-2-3-2-5.2c0-2.2,0.6-4,1.9-5.3s3-1.9,5.2-1.9c2.1,0,3.8,0.7,5.1,1.9
		c1.2,1.3,1.9,3.1,1.9,5.3v0.5H273.4z M263.4,60.3h6.4c-0.2-0.9-0.6-1.5-1.1-2s-1.2-0.7-2.1-0.7C264.9,57.6,263.8,58.5,263.4,60.3z"
		/>
	<path class="st0" d="M276.3,55.4h3.8v2.1c0.9-1.7,2.2-2.5,3.9-2.5c0.3,0,0.6,0,0.8,0.1c0.2,0,0.5,0.1,0.9,0.3l-0.5,3.5
		c-0.6-0.3-1.2-0.5-1.8-0.5c-2.2,0-3.3,1.4-3.3,4.1V69h-3.8V55.4z"/>
	<path class="st0" d="M306.9,51.6h-7v4.6h6.5v3.5h-6.5v9.1h-4.1V48.1h11v3.5H306.9z"/>
	<path class="st0" d="M316.9,54.9c2.3,0,4.1,0.7,5.5,2s2.2,3.1,2.2,5.2c0,2.1-0.7,3.8-2.2,5.2c-1.4,1.4-3.3,2-5.6,2
		c-2.3,0-4.2-0.7-5.6-2s-2.1-3.1-2.1-5.3c0-2.1,0.7-3.8,2.2-5.1C312.8,55.6,314.7,54.9,316.9,54.9z M316.9,58.3
		c-1.1,0-2,0.4-2.7,1.1c-0.7,0.7-1.1,1.6-1.1,2.7c0,1,0.4,1.9,1.1,2.6c0.7,0.7,1.7,1.1,2.7,1.1s1.9-0.4,2.7-1.1
		c0.7-0.7,1.1-1.6,1.1-2.7c0-1-0.4-1.9-1.1-2.7C318.8,58.7,317.9,58.3,316.9,58.3z"/>
	<path class="st0" d="M334.5,54.9c2.3,0,4.1,0.7,5.5,2s2.2,3.1,2.2,5.2c0,2.1-0.7,3.8-2.2,5.2c-1.4,1.4-3.3,2-5.6,2
		c-2.3,0-4.2-0.7-5.6-2s-2.1-3.1-2.1-5.3c0-2.1,0.7-3.8,2.2-5.1C330.4,55.6,332.3,54.9,334.5,54.9z M334.5,58.3
		c-1.1,0-2,0.4-2.7,1.1c-0.7,0.7-1.1,1.6-1.1,2.7c0,1,0.4,1.9,1.1,2.6c0.7,0.7,1.7,1.1,2.7,1.1s1.9-0.4,2.7-1.1
		c0.7-0.7,1.1-1.6,1.1-2.7c0-1-0.4-1.9-1.1-2.7C336.4,58.7,335.6,58.3,334.5,58.3z"/>
	<path class="st0" d="M355.5,45.5h3.8v23.4h-3.8v-1.8c-1.2,1.5-2.6,2.2-4.4,2.2c-1.9,0-3.5-0.7-4.8-2.1s-1.9-3.1-1.9-5.2
		c0-2,0.6-3.7,1.9-5.1c1.3-1.4,2.8-2.1,4.7-2.1c1.7,0,3.2,0.7,4.5,2.2L355.5,45.5L355.5,45.5z M352.1,58.3c-1.1,0-2,0.4-2.7,1.1
		c-0.7,0.7-1.1,1.6-1.1,2.7s0.4,1.9,1.1,2.7c0.7,0.8,1.6,1.1,2.7,1.1s2-0.4,2.7-1.1s1.1-1.6,1.1-2.7c0-1.1-0.4-2-1.1-2.7
		C354.1,58.7,353.2,58.3,352.1,58.3z"/>
	<path class="st0" d="M366.6,45.5v11.6c1.2-1.5,2.7-2.2,4.5-2.2c1.9,0,3.5,0.7,4.7,2c1.3,1.4,1.9,3.1,1.9,5.1c0,2.1-0.6,3.8-1.9,5.2
		s-2.9,2.1-4.8,2.1c-1.7,0-3.2-0.7-4.4-2.2v1.8h-3.8V45.5H366.6z M370,58.3c-1.1,0-2,0.4-2.7,1.1c-0.7,0.7-1.1,1.6-1.1,2.7
		c0,1.1,0.4,2,1.1,2.7s1.6,1.1,2.7,1.1s2-0.4,2.7-1.1s1.1-1.6,1.1-2.7c0-1.1-0.4-2-1.1-2.7C372,58.7,371.1,58.3,370,58.3z"/>
	<path class="st0" d="M384.4,45.5v23.4h-3.8V45.5H384.4z"/>
	<path class="st0" d="M395,54.9c2.3,0,4.1,0.7,5.5,2s2.2,3.1,2.2,5.2c0,2.1-0.7,3.8-2.2,5.2c-1.4,1.4-3.3,2-5.6,2
		c-2.3,0-4.2-0.7-5.6-2s-2.1-3.1-2.1-5.3c0-2.1,0.7-3.8,2.2-5.1C390.9,55.6,392.8,54.9,395,54.9z M395,58.3c-1.1,0-2,0.4-2.7,1.1
		c-0.7,0.7-1.1,1.6-1.1,2.7c0,1,0.4,1.9,1.1,2.6c0.7,0.7,1.7,1.1,2.7,1.1s1.9-0.4,2.7-1.1c0.7-0.7,1.1-1.6,1.1-2.7
		c0-1-0.4-1.9-1.1-2.7C396.9,58.7,396,58.3,395,58.3z"/>
	<path class="st0" d="M419.7,55.4v13c0,1.4-0.1,2.5-0.3,3.2c-0.2,0.7-0.6,1.5-1.3,2.2c-0.6,0.7-1.4,1.3-2.4,1.7
		c-1,0.4-2,0.6-3.3,0.6c-1.9,0-3.6-0.5-4.9-1.6c-1.3-1-2.1-2.4-2.3-4.1h4.1c0.4,1.6,1.4,2.4,3.2,2.4c2.2,0,3.4-1.3,3.4-3.8v-2
		c-0.7,0.8-1.4,1.4-2.1,1.7c-0.7,0.3-1.5,0.5-2.4,0.5c-1.9,0-3.5-0.7-4.7-2s-1.8-3-1.8-5.1c0-2.1,0.6-3.8,1.9-5.2
		c1.2-1.4,2.8-2.1,4.6-2.1c1,0,1.8,0.2,2.5,0.5c0.6,0.3,1.3,0.9,2,1.7v-1.7h3.8V55.4z M412.6,58.3c-1.1,0-2,0.4-2.7,1.1
		c-0.7,0.7-1.1,1.6-1.1,2.7s0.4,1.9,1.1,2.7c0.7,0.8,1.6,1.1,2.7,1.1s2-0.4,2.7-1.1s1.1-1.6,1.1-2.7c0-1.1-0.4-2-1.1-2.7
		C414.5,58.7,413.6,58.3,412.6,58.3z"/>
</g>
<rect x="174.4" y="44.8" class="st3" width="262.6" height="29.4"/>
<text transform="matrix(1 0 0 1 174.3999 68.7637)" class="st4 st5 st6">vegan food blog</text>
</svg>
